<?xml version="1.0" encoding="utf-8"?>
<!-- Generator: Adobe Illustrator 16.2.0, SVG Export Plug-In . SVG Version: 6.00 Build 0)  -->
<!DOCTYPE svg PUBLIC "-//W3C//DTD SVG 1.1//EN" "http://www.w3.org/Graphics/SVG/1.1/DTD/svg11.dtd">
<svg version="1.1" id="Слой_1" xmlns="http://www.w3.org/2000/svg" xmlns:xlink="http://www.w3.org/1999/xlink" x="0px" y="0px"
	 width="24px" height="24px" viewBox="0 0 24 24" enable-background="new 0 0 24 24" xml:space="preserve">
<path fill="#FFFFFF" d="M12.042,23.648C4.229,23.648,0,18.771,0,12.477C0,5.75,4.762,0.352,13.275,0.352
	C19.49,0.352,24,4.39,24,9.953c0,8.712-10.33,11.012-9.813,6.042c-0.709,1.108-1.854,2.354-4.053,2.354
	c-2.516,0-4.08-1.843-4.08-4.808c0-4.444,2.921-8.199,6.379-8.199c1.659,0,2.8,0.876,3.277,2.221l0.464-1.632h2.339
	c-0.244,0.832-2.322,8.527-2.322,8.527c-0.647,2.666,1.351,2.713,3.123,1.297c3.328-2.58,3.5-9.327-0.998-12.141
	C13.495,0.724,2.521,2.513,2.521,12.308c0,5.611,3.95,9.381,9.829,9.381c3.436,0,5.542-0.931,7.294-1.948l1.178,1.698
	C19.111,22.405,16.361,23.648,12.042,23.648z M9.698,9.343c-0.715,1.34-1.177,3.076-1.177,4.425c0,3.609,3.522,3.633,5.252,0.238
	c0.711-1.395,1.17-3.171,1.17-4.529C14.943,6.56,11.449,6.043,9.698,9.343z"/>
</svg>
