<?xml version="1.0" encoding="utf-8"?>
<!-- Generator: Adobe Illustrator 16.2.0, SVG Export Plug-In . SVG Version: 6.00 Build 0)  -->
<!DOCTYPE svg PUBLIC "-//W3C//DTD SVG 1.1//EN" "http://www.w3.org/Graphics/SVG/1.1/DTD/svg11.dtd">
<svg version="1.1" id="Слой_1" xmlns:serif="http://www.serif.com/"
	 xmlns="http://www.w3.org/2000/svg" xmlns:xlink="http://www.w3.org/1999/xlink" x="0px" y="0px" width="24px" height="24px"
	 viewBox="0 0 24 24" enable-background="new 0 0 24 24" xml:space="preserve">
<path id="telegram-5" fill="#FFFFFF" d="M12,0C5.373,0,0,5.373,0,12s5.373,12,12,12s12-5.373,12-12S18.627,0,12,0z M12,2
	c5.514,0,10,4.486,10,10c0,5.514-4.486,10-10,10C6.486,22,2,17.514,2,12C2,6.486,6.486,2,12,2z M14.691,16.889
	c0.162,0.115,0.369,0.145,0.554,0.073c0.185-0.069,0.321-0.228,0.362-0.42c0.435-2.042,1.488-7.211,1.884-9.068
	c0.03-0.14-0.019-0.285-0.13-0.379c-0.109-0.093-0.262-0.12-0.398-0.07C14.867,7.801,8.41,10.223,5.771,11.2
	c-0.168,0.062-0.277,0.223-0.271,0.4c0.006,0.177,0.125,0.33,0.296,0.381c1.184,0.354,2.738,0.847,2.738,0.847
	s0.725,2.193,1.104,3.308c0.047,0.14,0.157,0.25,0.301,0.287c0.145,0.038,0.298-0.001,0.406-0.103
	c0.608-0.574,1.548-1.461,1.548-1.461S13.68,16.168,14.691,16.889z M9.187,12.551l0.84,2.77l0.186-1.754
	c0,0,3.243-2.924,5.092-4.592c0.055-0.048,0.063-0.13,0.018-0.188c-0.045-0.057-0.127-0.071-0.188-0.032
	C12.991,10.121,9.187,12.551,9.187,12.551z"/>
</svg>
