<?xml version="1.0" encoding="utf-8"?>
<!-- Generator: Adobe Illustrator 16.2.0, SVG Export Plug-In . SVG Version: 6.00 Build 0)  -->
<!DOCTYPE svg PUBLIC "-//W3C//DTD SVG 1.1//EN" "http://www.w3.org/Graphics/SVG/1.1/DTD/svg11.dtd">
<svg version="1.1" id="Слой_1" xmlns="http://www.w3.org/2000/svg" xmlns:xlink="http://www.w3.org/1999/xlink" x="0px" y="0px"
	 width="24px" height="24px" viewBox="0 0 24 24" enable-background="new 0 0 24 24" xml:space="preserve">
<path fill="#FFFFFF" d="M12,2c5.514,0,10,4.486,10,10c0,5.514-4.486,10-10,10C6.486,22,2,17.514,2,12C2,6.486,6.486,2,12,2z M12,0
	C5.373,0,0,5.373,0,12s5.373,12,12,12s12-5.373,12-12S18.627,0,12,0z M18.5,8.778c-0.441,0.196-0.916,0.328-1.414,0.388
	c0.51-0.305,0.898-0.787,1.083-1.362c-0.476,0.282-1.003,0.487-1.563,0.597c-0.447-0.479-1.09-0.778-1.797-0.778
	c-1.59,0-2.758,1.483-2.397,3.023c-2.045-0.103-3.86-1.083-5.074-2.572c-0.645,1.106-0.334,2.554,0.762,3.287
	c-0.403-0.013-0.782-0.124-1.114-0.308c-0.027,1.14,0.791,2.207,1.975,2.445c-0.346,0.094-0.726,0.116-1.112,0.042
	c0.313,0.978,1.224,1.688,2.3,1.709C9.11,16.061,7.807,16.424,6.5,16.27c1.09,0.699,2.383,1.106,3.773,1.106
	c4.573,0,7.155-3.86,6.999-7.324C17.753,9.706,18.17,9.272,18.5,8.778z"/>
</svg>
