<?xml version="1.0" encoding="utf-8"?>
<!-- Generator: Adobe Illustrator 16.2.0, SVG Export Plug-In . SVG Version: 6.00 Build 0)  -->
<!DOCTYPE svg PUBLIC "-//W3C//DTD SVG 1.1//EN" "http://www.w3.org/Graphics/SVG/1.1/DTD/svg11.dtd">
<svg version="1.1" id="Слой_1" xmlns="http://www.w3.org/2000/svg" xmlns:xlink="http://www.w3.org/1999/xlink" x="0px" y="0px"
	 width="24px" height="24px" viewBox="0 0 24 24" enable-background="new 0 0 24 24" xml:space="preserve">
<path fill="#FFFFFF" d="M17.5,2C17.775,2,18,2.224,18,2.5v19c0,0.275-0.225,0.5-0.5,0.5h-11C6.224,22,6,21.775,6,21.5v-19
	C6,2.224,6.224,2,6.5,2H17.5z M20,2c0-1.104-0.896-2-2-2H6C4.896,0,4,0.896,4,2v20c0,1.104,0.896,2,2,2h12c1.104,0,2-0.896,2-2V2z
	 M10.5,3h3C13.775,3,14,3.224,14,3.501C14,3.776,13.775,4,13.5,4h-3C10.225,4,10,3.776,10,3.501C10,3.224,10.225,3,10.5,3z M12,21
	c-0.553,0-1-0.448-1-1s0.447-1,1-1c0.553,0,0.999,0.448,0.999,1S12.553,21,12,21z M17,18H7V5h10V18z"/>
</svg>
