<?xml version="1.0" encoding="utf-8"?>
<!-- Generator: Adobe Illustrator 16.2.0, SVG Export Plug-In . SVG Version: 6.00 Build 0)  -->
<!DOCTYPE svg PUBLIC "-//W3C//DTD SVG 1.1//EN" "http://www.w3.org/Graphics/SVG/1.1/DTD/svg11.dtd">
<svg version="1.1" id="Слой_1" xmlns="http://www.w3.org/2000/svg" xmlns:xlink="http://www.w3.org/1999/xlink" x="0px" y="0px"
	 width="24px" height="24px" viewBox="0 0 24 24" enable-background="new 0 0 24 24" xml:space="preserve">
<path fill="#FCFCFC" d="M12,2c5.514,0,10,4.486,10,10c0,5.514-4.486,10-10,10C6.486,22,2,17.514,2,12C2,6.486,6.486,2,12,2z M12,0
	C5.373,0,0,5.373,0,12s5.373,12,12,12s12-5.373,12-12S18.627,0,12,0z M17.494,12.982c0.679-3.881-2.708-7.207-6.527-6.489
	c-2.91-1.78-6.251,1.614-4.466,4.515c-0.694,3.873,2.69,7.24,6.541,6.504C15.958,19.281,19.288,15.883,17.494,12.982z
	 M12.192,15.928c-1.59,0-3.189-0.724-3.181-1.97c0.002-0.376,0.281-0.722,0.653-0.722c0.938,0,0.929,1.396,2.42,1.396
	c1.046,0,1.402-0.572,1.402-0.972c0-1.443-4.521-0.562-4.521-3.272c0-1.468,1.201-2.481,3.089-2.37
	c1.799,0.106,2.856,0.902,2.958,1.645c0.051,0.485-0.271,0.863-0.83,0.863c-0.813,0-0.896-1.09-2.3-1.09
	c-0.633,0-1.167,0.264-1.167,0.837c0,1.197,4.495,0.502,4.495,3.138C15.213,14.932,14.001,15.928,12.192,15.928z"/>
</svg>
