<?xml version="1.0" encoding="utf-8"?>
<!-- Generator: Adobe Illustrator 16.2.0, SVG Export Plug-In . SVG Version: 6.00 Build 0)  -->
<!DOCTYPE svg PUBLIC "-//W3C//DTD SVG 1.1//EN" "http://www.w3.org/Graphics/SVG/1.1/DTD/svg11.dtd">
<svg version="1.1" id="Слой_1" xmlns="http://www.w3.org/2000/svg" xmlns:xlink="http://www.w3.org/1999/xlink" x="0px" y="0px"
	 width="24px" height="24px" viewBox="0 0 24 24" enable-background="new 0 0 24 24" xml:space="preserve">
<path fill="#FFFFFF" d="M21.854,13.684l1.998,0.158c-0.131,0.854-0.351,1.676-0.651,2.46l-1.8-0.905
	C21.6,14.846,21.753,14.273,21.854,13.684z M19.307,21.509l-1.414-1.442c-0.485,0.355-1.006,0.668-1.555,0.933l0.669,1.899
	C17.828,22.521,18.598,22.055,19.307,21.509z M20.532,17.2c-0.335,0.546-0.72,1.057-1.149,1.528l1.404,1.433
	c0.583-0.627,1.1-1.316,1.539-2.058L20.532,17.2z M0,12c0,6.627,5.375,12,12.004,12c1.081,0,2.124-0.156,3.12-0.424l-0.665-1.895
	C13.672,21.882,12.852,22,12.004,22C6.488,22,2.001,17.514,2.001,12c0-5.514,4.487-10,10.003-10c2.234,0,4.293,0.744,5.959,1.989
	l-2.05,2.049l7.015,1.354l-1.355-7.013l-2.184,2.183C17.354,0.964,14.794,0,12.004,0C5.375,0,0,5.373,0,12z M23.773,9.641h-2.076
	c0.162,0.661,0.261,1.344,0.287,2.047L24,11.849C23.99,11.094,23.915,10.355,23.773,9.641z M14.768,15v-1.419h-2.594v-1.295
	l2.723-3.653h1.287v3.689H17v1.259h-0.814V15H14.768z M14.768,12.321v-1.695l-1.263,1.695H14.768z M7,15
	c0-0.961,0.275-1.709,1.234-2.419c1.129-0.836,1.99-1.165,1.99-1.939c0-0.512-0.308-0.83-0.804-0.83
	c-0.69,0-0.855,0.723-0.855,1.411H7.144C7.084,9.441,8.095,8.51,9.482,8.51c1.287,0,2.22,0.856,2.22,2.036
	c0,0.589-0.183,1.056-0.576,1.469C10.505,12.67,9.574,13,8.963,13.697h2.774V15H7z"/>
</svg>
