<?xml version="1.0" encoding="utf-8"?>
<!-- Generator: Adobe Illustrator 16.2.0, SVG Export Plug-In . SVG Version: 6.00 Build 0)  -->
<!DOCTYPE svg PUBLIC "-//W3C//DTD SVG 1.1//EN" "http://www.w3.org/Graphics/SVG/1.1/DTD/svg11.dtd">
<svg version="1.1" id="Слой_1" xmlns="http://www.w3.org/2000/svg" xmlns:xlink="http://www.w3.org/1999/xlink" x="0px" y="0px"
	 width="24px" height="24px" viewBox="0 0 24 24" enable-background="new 0 0 24 24" xml:space="preserve">
<path fill="#FFFFFF" d="M8.326,6h0.721L9.54,7.851L9.998,6h0.727L9.893,8.752v1.878H9.177V8.752L8.326,6z M11.623,7.187
	c-0.56,0-0.931,0.37-0.931,0.917v1.675c0,0.602,0.314,0.916,0.931,0.916c0.511,0,0.913-0.342,0.913-0.916V8.104
	C12.536,7.569,12.138,7.187,11.623,7.187z M11.889,9.75c0,0.186-0.095,0.323-0.266,0.323c-0.176,0-0.277-0.144-0.277-0.323V8.161
	c0-0.187,0.086-0.326,0.265-0.326c0.194,0,0.278,0.134,0.278,0.326V9.75z M14.253,7.215v2.593c-0.077,0.097-0.25,0.256-0.374,0.256
	c-0.135,0-0.169-0.093-0.169-0.23V7.215h-0.635v2.855c0,0.337,0.103,0.61,0.442,0.61c0.192,0,0.459-0.1,0.734-0.426v0.377h0.635
	V7.215H14.253z M15.354,14.145c-0.224,0-0.271,0.157-0.271,0.381v0.33h0.535v-0.33C15.619,14.305,15.572,14.145,15.354,14.145z
	 M13.003,14.164l-0.125,0.1v2.026l0.144,0.115c0.1,0.05,0.242,0.054,0.311-0.034c0.034-0.046,0.052-0.121,0.052-0.225v-1.68
	c0-0.109-0.021-0.193-0.063-0.25C13.246,14.121,13.109,14.109,13.003,14.164z M15.416,11.566c-1.301-0.089-5.533-0.088-6.833,0
	C7.177,11.663,7.011,12.514,7,14.75c0.011,2.232,0.175,3.087,1.583,3.184c1.3,0.088,5.532,0.09,6.833,0
	c1.406-0.096,1.572-0.945,1.584-3.184C16.988,12.518,16.825,11.663,15.416,11.566z M9.254,16.91H8.573v-3.77H7.868V12.5h2.091v0.641
	H9.254V16.91z M11.678,16.91h-0.605v-0.359c-0.111,0.133-0.228,0.233-0.348,0.303c-0.326,0.187-0.773,0.183-0.773-0.478v-2.72h0.604
	v2.494c0,0.131,0.032,0.219,0.161,0.219c0.118,0,0.282-0.151,0.355-0.244v-2.47h0.605L11.678,16.91L11.678,16.91z M14.006,16.234
	c0,0.404-0.15,0.717-0.553,0.717c-0.223,0-0.406-0.081-0.575-0.292v0.25h-0.61V12.5h0.61v1.42c0.138-0.167,0.322-0.304,0.538-0.304
	c0.443,0,0.59,0.374,0.59,0.815V16.234z M16.241,15.359h-1.157v0.613c0,0.244,0.021,0.455,0.266,0.455
	c0.254,0,0.271-0.172,0.271-0.455v-0.226h0.622v0.244c0,0.627-0.27,1.007-0.906,1.007c-0.577,0-0.873-0.421-0.873-1.007v-1.46
	c0-0.565,0.373-0.957,0.919-0.957c0.58,0,0.86,0.369,0.86,0.957L16.241,15.359L16.241,15.359z M12,2c5.514,0,10,4.486,10,10
	c0,5.514-4.486,10-10,10C6.486,22,2,17.514,2,12C2,6.486,6.486,2,12,2z M12,0C5.373,0,0,5.373,0,12s5.373,12,12,12s12-5.373,12-12
	S18.627,0,12,0z"/>
</svg>
